<?xml version="1.0" standalone="no"?>
<!DOCTYPE svg PUBLIC "-//W3C//DTD SVG 20010904//EN"
 "http://www.w3.org/TR/2001/REC-SVG-20010904/DTD/svg10.dtd">
<svg version="1.0" xmlns="http://www.w3.org/2000/svg"
 width="211.000000pt" height="211.000000pt" viewBox="0 0 211.000000 211.000000"
 preserveAspectRatio="xMidYMid meet">
<metadata>
Created by potrace 1.14, written by Peter Selinger 2001-2017
</metadata>
<g transform="translate(0.000000,211.000000) scale(0.100000,-0.100000)"
fill="#000000" stroke="none">
<path d="M937 1970 c-97 -25 -212 -110 -261 -194 -108 -185 -53 -436 123 -554
163 -109 374 -93 515 38 216 203 166 545 -100 676 -62 31 -84 37 -156 40 -45
2 -100 -1 -121 -6z"/>
<path d="M343 986 c-66 -21 -124 -60 -177 -115 -225 -241 -90 -634 238 -692
220 -38 440 122 476 346 29 175 -68 359 -229 437 -59 29 -77 32 -166 35 -65 2
-115 -2 -142 -11z"/>
<path d="M1489 977 c-121 -51 -181 -107 -232 -215 -95 -202 -3 -456 198 -548
255 -117 540 34 588 310 30 177 -64 356 -230 438 -60 29 -77 33 -167 36 -88 2
-108 0 -157 -21z"/>
</g>
</svg>
